<?xml version="1.0" encoding="UTF-8" standalone="no"?>
<!-- Created with Inkscape (http://www.inkscape.org/) -->

<svg
   width="71mm"
   height="16mm"
   viewBox="0 0 71 16"
   version="1.1"
   id="svg5"
   sodipodi:docname="logo.svg"
   inkscape:version="1.2.1 (9c6d41e410, 2022-07-14)"
   xmlns:inkscape="http://www.inkscape.org/namespaces/inkscape"
   xmlns:sodipodi="http://sodipodi.sourceforge.net/DTD/sodipodi-0.dtd"
   xmlns="http://www.w3.org/2000/svg"
   xmlns:svg="http://www.w3.org/2000/svg">
  <sodipodi:namedview
     id="namedview7"
     pagecolor="#ffffff"
     bordercolor="#000000"
     borderopacity="0.25"
     inkscape:showpageshadow="2"
     inkscape:pageopacity="0.0"
     inkscape:pagecheckerboard="0"
     inkscape:deskcolor="#d1d1d1"
     inkscape:document-units="mm"
     showgrid="false"
     inkscape:zoom="2.587745"
     inkscape:cx="286.73614"
     inkscape:cy="124.43266"
     inkscape:window-width="2560"
     inkscape:window-height="1377"
     inkscape:window-x="-8"
     inkscape:window-y="-8"
     inkscape:window-maximized="1"
     inkscape:current-layer="layer1" />
  <defs
     id="defs2">
    <rect
       x="48.691044"
       y="112.83956"
       width="258.08774"
       height="54.886803"
       id="rect1516" />
  </defs>
  <g
     inkscape:label="Warstwa 1"
     inkscape:groupmode="layer"
     id="layer1">
    <path
       id="text1514"
       style="font-size:37.3333px;font-family:lato;-inkscape-font-specification:lato;white-space:pre;shape-inside:url(#rect1516);display:inline;fill:#ffffff;fill-opacity:1"
       d="M 291.33879 119.821 L 291.33879 147.56023 L 295.95001 147.56023 L 295.95001 119.821 L 291.33879 119.821 z M 59.406364 120.56775 L 48.803173 147.56023 L 52.7044 147.56023 C 53.12751 147.56023 53.483168 147.44231 53.76939 147.20586 C 54.068056 146.96942 54.265856 146.70731 54.365411 146.42109 L 56.381418 140.91401 L 67.563814 140.91401 L 69.579822 146.42109 C 69.704266 146.74465 69.902066 147.01836 70.175843 147.24236 C 70.462065 147.45392 70.823962 147.56023 71.259517 147.56023 L 75.14206 147.56023 L 64.538869 120.56775 L 59.406364 120.56775 z M 147.79307 120.56775 L 147.79307 147.56023 L 152.83215 147.56023 L 152.83215 120.56775 L 147.79307 120.56775 z M 243.45907 122.5464 C 243.1853 122.5464 242.95443 122.61483 242.76776 122.75172 C 242.59354 122.88861 242.4831 123.08229 242.43332 123.33118 L 241.46175 128.5569 L 238.38262 129.06183 L 238.38262 130.88992 C 238.38262 131.21348 238.46811 131.45664 238.64233 131.61842 C 238.829 131.7802 239.04738 131.86176 239.29627 131.86176 L 241.23754 131.86176 L 241.23754 142.55655 C 241.23754 144.21166 241.68679 145.51334 242.58279 146.45911 C 243.47879 147.39245 244.75418 147.85832 246.40928 147.85832 C 247.34261 147.85832 248.24362 147.71565 249.11473 147.42943 C 249.98584 147.14321 250.75769 146.7195 251.42968 146.1595 L 250.04893 143.91925 C 249.94938 143.78237 249.85578 143.68338 249.76867 143.62116 C 249.68156 143.5465 249.56925 143.50862 249.43236 143.50862 C 249.32036 143.50862 249.20805 143.5465 249.09605 143.62116 C 248.98405 143.68338 248.85302 143.75181 248.70368 143.82648 C 248.56679 143.90115 248.40019 143.97538 248.20108 144.05005 C 248.01442 144.11227 247.77731 144.14434 247.49109 144.14434 C 246.99331 144.14434 246.59585 143.97541 246.29718 143.63941 C 245.99851 143.30341 245.84876 142.83754 245.84876 142.24021 L 245.84876 131.86176 L 250.88785 131.86176 L 250.88785 128.57515 L 245.84876 128.57515 L 245.84876 122.5464 L 243.45907 122.5464 z M 61.964209 125.21554 C 62.138431 125.8502 62.311271 126.44132 62.485493 126.98888 C 62.67216 127.52399 62.840629 127.99138 62.989962 128.3896 L 66.274616 137.36733 L 57.670617 137.36733 L 60.955271 128.42611 C 61.117048 128.01544 61.279278 127.53643 61.441056 126.98888 C 61.615278 126.44132 61.789987 125.8502 61.964209 125.21554 z M 84.568156 128.05349 C 83.31127 128.05349 82.179397 128.30827 81.171398 128.81849 C 80.1634 129.31627 79.297962 130.0137 78.576186 130.90969 C 77.854409 131.80569 77.300952 132.86268 76.915175 134.08224 C 76.529398 135.30179 76.33597 136.62089 76.33597 138.03955 C 76.33597 139.60755 76.504439 141.00088 76.840439 142.22044 C 77.188883 143.43999 77.673704 144.46795 78.295925 145.30173 C 78.930591 146.12306 79.683716 146.75054 80.554825 147.18609 C 81.425935 147.62165 82.384967 147.84007 83.430299 147.84007 C 84.064964 147.84007 84.655859 147.77164 85.203414 147.63475 C 85.750968 147.51031 86.266988 147.33557 86.75232 147.11157 C 87.237653 146.87513 87.693145 146.5956 88.116255 146.27205 C 88.55181 145.93605 88.961756 145.56183 89.347533 145.15116 L 89.347533 153.81254 L 93.958753 153.81254 L 93.958753 128.40785 L 91.139332 128.40785 C 90.840666 128.40785 90.584842 128.47628 90.373287 128.61317 C 90.161731 128.75006 90.026328 128.96116 89.964106 129.24738 L 89.721214 130.31199 C 89.397659 129.96355 89.06072 129.65195 88.712276 129.37817 C 88.363832 129.1044 87.978844 128.86856 87.555734 128.66945 C 87.145068 128.47033 86.689576 128.32034 86.191799 128.22079 C 85.706467 128.10879 85.165489 128.05349 84.568156 128.05349 z M 128.08141 128.05349 C 124.9703 128.05349 122.31346 129.06099 120.1108 131.07699 L 120.94971 132.55224 C 121.0866 132.78868 121.26755 132.98664 121.49155 133.14842 C 121.71555 133.3102 121.98198 133.39176 122.2931 133.39176 C 122.66643 133.39176 123.00961 133.30439 123.32072 133.13017 C 123.63183 132.95595 123.9669 132.76379 124.32779 132.55224 C 124.70112 132.32824 125.13789 132.12876 125.63567 131.95453 C 126.13345 131.78031 126.75554 131.69294 127.5022 131.69294 C 128.53509 131.69294 129.31941 132.00454 129.85452 132.62676 C 130.40208 133.23654 130.67475 134.18142 130.67475 135.46319 L 130.67475 136.58408 C 128.49698 136.63385 126.67438 136.84495 125.20594 137.21828 C 123.73749 137.59161 122.56194 138.06481 121.67839 138.63726 C 120.79484 139.19726 120.16026 139.83206 119.77449 140.54139 C 119.40115 141.23828 119.21397 141.94732 119.21397 142.66909 C 119.21397 143.52776 119.35124 144.28048 119.62501 144.92759 C 119.89879 145.5747 120.27754 146.11633 120.76287 146.55189 C 121.26065 146.98744 121.85154 147.31646 122.53599 147.54046 C 123.22043 147.75201 123.96732 147.85832 124.7762 147.85832 C 125.46065 147.85832 126.08274 147.80302 126.64274 147.69102 C 127.20274 147.57902 127.73311 147.41009 128.23088 147.18609 C 128.72866 146.96209 129.20724 146.68837 129.66768 146.36482 C 130.14057 146.02882 130.61915 145.64299 131.10449 145.20743 L 131.51554 146.57014 C 131.63998 146.96836 131.82717 147.23627 132.07606 147.37316 C 132.32495 147.4976 132.66626 147.56023 133.10181 147.56023 L 134.05283 147.56023 C 132.62034 149.2328 128.79097 154.06538 129.82089 156.82844 C 130.36743 158.29466 131.3218 159.45194 134.4564 159.45194 C 137.591 159.45194 138.63131 158.36132 139.21336 156.88775 C 140.30256 154.13019 136.50444 149.24381 135.08979 147.56023 L 135.17387 147.56023 L 135.17387 135.46319 C 135.17387 134.38053 135.01164 133.38616 134.68809 132.47772 C 134.37697 131.56927 133.91711 130.79028 133.30733 130.14317 C 132.69756 129.48362 131.95067 128.97406 131.06712 128.61317 C 130.19601 128.23984 129.20141 128.05349 128.08141 128.05349 z M 264.42256 128.05349 C 263.27768 128.05349 262.24377 128.39564 261.32288 129.08008 C 260.40199 129.76452 259.59895 130.69779 258.91451 131.88001 L 258.63612 129.56524 C 258.57389 129.14213 258.4491 128.84367 258.26244 128.66945 C 258.07577 128.49522 257.74507 128.40785 257.27218 128.40785 L 254.56673 128.40785 L 254.56673 147.56023 L 259.17609 147.56023 L 259.17609 135.63201 C 259.64897 134.61157 260.22739 133.8399 260.91183 133.31724 C 261.59628 132.78213 262.41804 132.51422 263.37626 132.51422 C 263.91137 132.51422 264.3419 132.5579 264.66546 132.64501 C 264.98901 132.73212 265.24297 132.77581 265.42963 132.77581 C 265.64119 132.77581 265.80966 132.73212 265.9341 132.64501 C 266.05855 132.54546 266.13966 132.38385 266.17699 132.15985 L 266.77301 128.70595 C 266.15079 128.27039 265.36834 128.05349 264.42256 128.05349 z M 168.86679 128.10976 C 168.21968 128.10976 167.62255 128.17087 167.07499 128.29531 C 166.52744 128.41975 166.01142 128.6003 165.52609 128.83674 C 165.0532 129.07319 164.59958 129.35423 164.16402 129.67779 C 163.74091 130.00134 163.33534 130.36091 162.94956 130.75913 L 162.63193 129.24738 C 162.44526 128.68738 162.05404 128.40785 161.4567 128.40785 L 158.63728 128.40785 L 158.63728 147.56023 L 163.2485 147.56023 L 163.2485 133.70962 C 163.87072 133.0874 164.53026 132.59526 165.22714 132.23438 C 165.92403 131.87349 166.67092 131.69294 167.46736 131.69294 C 168.55002 131.69294 169.35931 132.01615 169.89442 132.66326 C 170.44197 133.29793 170.71464 134.20064 170.71464 135.37042 L 170.71464 147.56023 L 175.32587 147.56023 L 175.32587 135.37042 C 175.32587 134.3002 175.18235 133.32325 174.89613 132.43969 C 174.62236 131.54369 174.21241 130.77784 173.66485 130.14317 C 173.12974 129.49606 172.45773 128.99964 171.64885 128.65119 C 170.83996 128.29031 169.91213 128.10976 168.86679 128.10976 z M 187.87033 128.10976 C 186.36455 128.10976 185.03301 128.35874 183.87568 128.85651 C 182.71835 129.35429 181.74684 130.04439 180.96284 130.92794 C 180.17884 131.79905 179.58171 132.83863 179.17104 134.04574 C 178.77282 135.2404 178.57315 136.54056 178.57315 137.94678 C 178.57315 139.51478 178.79778 140.91392 179.24578 142.14591 C 179.70622 143.36547 180.32207 144.39924 181.09363 145.24546 C 181.87763 146.09168 182.79298 146.73809 183.83831 147.18609 C 184.88364 147.62165 185.9968 147.84007 187.17902 147.84007 C 187.85102 147.84007 188.52927 147.79058 189.21371 147.69102 C 189.89815 147.59147 190.55768 147.42254 191.19235 147.18609 C 191.83946 146.9372 192.46155 146.614 193.05888 146.21577 C 193.65622 145.80511 194.20967 145.30136 194.7199 144.70402 L 193.3952 143.02346 C 193.20853 142.73724 192.92775 142.59457 192.55442 142.59457 C 192.26819 142.59457 192.008 142.68775 191.77155 142.87441 C 191.54755 143.04863 191.27925 143.24812 190.96814 143.47212 C 190.65703 143.68367 190.27204 143.88315 189.8116 144.06982 C 189.3636 144.24404 188.7727 144.32989 188.03848 144.32989 C 187.30426 144.32989 186.64473 144.19303 186.05984 143.91925 C 185.47496 143.63303 184.97579 143.22246 184.56512 142.68735 C 184.15446 142.13979 183.8381 141.46863 183.6141 140.67219 C 183.40255 139.87574 183.29648 138.96722 183.29648 137.94678 C 183.29648 136.96367 183.39631 136.0857 183.59542 135.31415 C 183.79453 134.53015 184.09216 133.86479 184.49039 133.31724 C 184.90105 132.76968 185.4127 132.3533 186.02248 132.06708 C 186.63225 131.76841 187.3417 131.61842 188.15059 131.61842 C 188.78525 131.61842 189.31375 131.69266 189.73686 131.84199 C 190.17242 131.97888 190.54493 132.14048 190.85604 132.32715 C 191.16715 132.50137 191.43545 132.6645 191.65945 132.81383 C 191.88345 132.95072 192.11432 133.01915 192.35076 133.01915 C 192.59965 133.01915 192.78497 132.96814 192.90941 132.86858 C 193.0463 132.76902 193.18357 132.63217 193.32046 132.45794 L 194.53305 130.7789 C 193.67439 129.92023 192.70475 129.26068 191.62208 128.80024 C 190.55186 128.3398 189.30144 128.10976 187.87033 128.10976 z M 205.84624 128.10976 C 204.41513 128.10976 203.11479 128.3398 201.94501 128.80024 C 200.77524 129.26068 199.77253 129.91291 198.93875 130.75913 C 198.11742 131.60535 197.47661 132.63912 197.01616 133.85867 C 196.56816 135.07822 196.34541 136.441 196.34541 137.94678 C 196.34541 139.465 196.56816 140.83359 197.01616 142.05314 C 197.47661 143.27269 198.11742 144.31227 198.93875 145.17093 C 199.77253 146.0296 200.77524 146.68915 201.94501 147.14959 C 203.11479 147.61003 204.41513 147.84007 205.84624 147.84007 C 207.27735 147.84007 208.57145 147.61003 209.72878 147.14959 C 210.89856 146.68915 211.89316 146.0296 212.71449 145.17093 C 213.53582 144.31227 214.1704 143.27269 214.61839 142.05314 C 215.06639 140.83359 215.29102 139.465 215.29102 137.94678 C 215.29102 136.441 215.06639 135.07822 214.61839 133.85867 C 214.1704 132.63912 213.53582 131.60535 212.71449 130.75913 C 211.89316 129.91291 210.89856 129.26068 209.72878 128.80024 C 208.57145 128.3398 207.27735 128.10976 205.84624 128.10976 z M 229.12281 128.10976 C 228.4757 128.10976 227.87857 128.17087 227.33101 128.29531 C 226.78346 128.41975 226.26744 128.6003 225.78211 128.83674 C 225.30922 129.07319 224.85559 129.35423 224.42004 129.67779 C 223.99693 130.00134 223.59135 130.36091 223.20558 130.75913 L 222.88795 129.24738 C 222.70128 128.68738 222.31006 128.40785 221.71272 128.40785 L 218.8933 128.40785 L 218.8933 147.56023 L 223.50452 147.56023 L 223.50452 133.70962 C 224.12674 133.0874 224.78627 132.59526 225.48316 132.23438 C 226.18005 131.87349 226.92693 131.69294 227.72338 131.69294 C 228.80604 131.69294 229.61532 132.01615 230.15043 132.66326 C 230.69799 133.29793 230.97066 134.20064 230.97066 135.37042 L 230.97066 147.56023 L 235.58188 147.56023 L 235.58188 135.37042 C 235.58188 134.3002 235.43837 133.32325 235.15215 132.43969 C 234.87837 131.54369 234.46843 130.77784 233.92087 130.14317 C 233.38576 129.49606 232.71375 128.99964 231.90487 128.65119 C 231.09598 128.29031 230.16814 128.10976 229.12281 128.10976 z M 277.99278 128.10976 C 276.56167 128.10976 275.26133 128.3398 274.09155 128.80024 C 272.92178 129.26068 271.91907 129.91291 271.08529 130.75913 C 270.26396 131.60535 269.62315 132.63912 269.1627 133.85867 C 268.7147 135.07822 268.49195 136.441 268.49195 137.94678 C 268.49195 139.465 268.7147 140.83359 269.1627 142.05314 C 269.62315 143.27269 270.26396 144.31227 271.08529 145.17093 C 271.91907 146.0296 272.92178 146.68915 274.09155 147.14959 C 275.26133 147.61003 276.56167 147.84007 277.99278 147.84007 C 279.42389 147.84007 280.71799 147.61003 281.87532 147.14959 C 283.0451 146.68915 284.0397 146.0296 284.86103 145.17093 C 285.68236 144.31227 286.3188 143.27269 286.7668 142.05314 C 287.2148 140.83359 287.43756 139.465 287.43756 137.94678 C 287.43756 136.441 287.2148 135.07822 286.7668 133.85867 C 286.3188 132.63912 285.68236 131.60535 284.86103 130.75913 C 284.0397 129.91291 283.0451 129.26068 281.87532 128.80024 C 280.71799 128.3398 279.42389 128.10976 277.99278 128.10976 z M 98.549421 128.40785 L 98.549421 140.57789 C 98.549421 141.64811 98.686693 142.63239 98.96047 143.52839 C 99.246692 144.41194 99.662877 145.17628 100.21043 145.82339 C 100.75799 146.4705 101.43 146.97425 102.22644 147.33514 C 103.03533 147.68358 103.96316 147.85832 105.00849 147.85832 C 105.64316 147.85832 106.23405 147.78989 106.78161 147.653 C 107.34161 147.52856 107.85763 147.35382 108.33051 147.12982 C 108.81585 146.89338 109.27134 146.61385 109.69445 146.2903 C 110.11756 145.9543 110.52751 145.58741 110.92573 145.18918 L 111.24336 146.71918 C 111.43002 147.27918 111.82125 147.56023 112.41858 147.56023 L 115.238 147.56023 L 115.238 128.40785 L 110.62678 128.40785 L 110.62678 142.25846 C 110.00456 142.88068 109.34503 143.37282 108.64814 143.73371 C 107.95126 144.08215 107.20437 144.25537 106.40793 144.25537 C 105.32526 144.25537 104.51161 143.93796 103.96405 143.3033 C 103.42894 142.65619 103.16064 141.74767 103.16064 140.57789 L 103.16064 128.40785 L 98.549421 128.40785 z M 85.651831 131.56215 C 86.361163 131.56215 87.020693 131.6932 87.63047 131.95453 C 88.252691 132.21587 88.824867 132.66432 89.347533 133.29899 L 89.347533 141.88584 C 88.750201 142.62007 88.115628 143.18492 87.44363 143.58314 C 86.771631 143.98136 85.95611 144.18084 84.997889 144.18084 C 84.400557 144.18084 83.859579 144.07606 83.374246 143.8645 C 82.888914 143.6405 82.477099 143.28522 82.1411 142.79989 C 81.805101 142.30211 81.544905 141.66731 81.358239 140.89576 C 81.184017 140.11176 81.096662 139.15955 81.096662 138.03955 C 81.096662 136.932 81.202736 135.97399 81.414291 135.1651 C 81.625846 134.34377 81.923479 133.67109 82.309256 133.14842 C 82.707478 132.61331 83.187928 132.21587 83.747927 131.95453 C 84.320371 131.6932 84.954943 131.56215 85.651831 131.56215 z M 205.84624 131.63667 C 207.43913 131.63667 208.61468 132.1783 209.37379 133.26097 C 210.14534 134.34363 210.53033 135.91751 210.53033 137.98328 C 210.53033 140.04905 210.14534 141.61713 209.37379 142.68735 C 208.61468 143.75757 207.43913 144.29339 205.84624 144.29339 C 204.22846 144.29339 203.0342 143.75757 202.26264 142.68735 C 201.49109 141.60468 201.10423 140.03661 201.10423 137.98328 C 201.10423 135.92995 201.49109 134.36188 202.26264 133.27922 C 203.0342 132.18411 204.22846 131.63667 205.84624 131.63667 z M 277.99278 131.63667 C 279.58566 131.63667 280.76122 132.1783 281.52033 133.26097 C 282.29188 134.34363 282.67874 135.91751 282.67874 137.98328 C 282.67874 140.04905 282.29188 141.61713 281.52033 142.68735 C 280.76122 143.75757 279.58566 144.29339 277.99278 144.29339 C 276.375 144.29339 275.18073 143.75757 274.40918 142.68735 C 273.63763 141.60468 273.25077 140.03661 273.25077 137.98328 C 273.25077 135.92995 273.63763 134.36188 274.40918 133.27922 C 275.18073 132.18411 276.375 131.63667 277.99278 131.63667 z M 130.67475 139.38401 L 130.67475 142.61282 C 130.33875 142.96127 130.00368 143.26706 129.66768 143.52839 C 129.34413 143.77728 129.00095 143.98837 128.64006 144.16259 C 128.29162 144.33682 127.91911 144.46787 127.52089 144.55498 C 127.12267 144.64209 126.68776 144.68577 126.21487 144.68577 C 125.44332 144.68577 124.81312 144.51104 124.32779 144.16259 C 123.8549 143.81415 123.61966 143.23464 123.61966 142.42575 C 123.61966 142.01509 123.73197 141.63658 123.95597 141.28814 C 124.19242 140.9397 124.58365 140.63391 125.1312 140.37257 C 125.67875 140.11124 126.40068 139.90015 127.29668 139.73837 C 128.20512 139.56415 129.33076 139.44623 130.67475 139.38401 z "
       transform="matrix(0.27658066,0,0,0.33978105,-12.168896,-38.668068)" />
  </g>
</svg>
